<svg xmlns="http://www.w3.org/2000/svg" width="530" height="208" viewBox="0 0 530 208">
    <path fill="#B19268" fill-rule="evenodd" d="M50.984 205.115v-5.481H78.06v-46.158H0v-5.481L81.228 3.173h49.832v143.379h28.516v-25.099h5.473v53.37h-5.473v-21.347H131.06v46.158h19.875v5.481H50.984zM9.217 146.552H78.06V25.099L9.217 146.552zM266.152 208c-27.844 0-49.015-9.424-63.513-28.272-14.499-18.848-21.748-45.196-21.748-79.046 0-33.85 7.777-59.091 23.332-75.728C219.777 8.318 241.044 0 268.024 0c26.98 0 48.2 8.27 63.658 24.81 15.458 16.54 23.188 42.888 23.188 79.046 0 36.157-7.778 62.553-23.332 79.19C315.984 199.682 294.188 208 266.152 208zM239.94 93.182v25.675c0 18.656.144 31.83.432 39.523.288 7.693 1.296 15.675 3.025 23.945 1.728 8.27 4.512 13.607 8.353 16.01 3.84 2.405 8.353 3.607 13.538 3.607 5.185 0 9.073-.289 11.666-.866 2.592-.577 4.897-1.779 6.913-3.606s3.696-3.654 5.04-5.481c1.345-1.827 2.449-4.664 3.313-8.51a235.089 235.089 0 0 0 2.16-10.675c.577-3.27.96-8.077 1.153-14.424.384-12.309.576-24.714.576-37.215V95.778c0-37.696-1.393-62.073-4.177-73.132-2.784-11.058-10.705-16.588-23.764-16.588-13.058 0-21.027 5.674-23.907 17.021-2.88 11.347-4.32 34.715-4.32 70.103zm175.995 111.933v-5.481h27.076v-46.158h-78.06v-5.481L446.18 3.173h49.832v143.379h28.516v-25.099H530v53.37h-5.473v-21.347h-28.516v46.158h19.875v5.481h-99.951zm-41.767-58.563h68.843V25.099l-68.843 121.453z"/>
</svg>
