<svg xmlns="http://www.w3.org/2000/svg" width="26" height="15" viewBox="0 0 26 15">
    <path fill="#FFF" fill-rule="evenodd" d="M7.493 8.597c0 .264-.105.497-.316.702-.21.205-.459.307-.745.307s-.541-.102-.767-.307c-.226-.205-.339-.446-.339-.724 0-.277.113-.518.339-.723.226-.205.481-.307.767-.307.286 0 .534.102.745.307a1 1 0 0 1 .316.745zm11.962-1.052c.3 0 .557.102.767.307.21.205.316.446.316.723a.976.976 0 0 1-.316.724 1.06 1.06 0 0 1-.767.307c-.301 0-.557-.102-.767-.307a.976.976 0 0 1-.316-.724c0-.277.105-.518.316-.723a1.06 1.06 0 0 1 .767-.307zm4.062 6.095a6.643 6.643 0 0 1-3.114 1.294c-1.144.16-2.25.029-3.318-.395a6.729 6.729 0 0 1-2.73-1.995l-1.4 2.06-1.354-2.016a6.248 6.248 0 0 1-2.64 1.907c-1.04.395-2.122.526-3.25.395a6.615 6.615 0 0 1-3.093-1.184 5.974 5.974 0 0 1-2.076-2.543A6.26 6.26 0 0 1 .045 7.94c.12-1.111.527-2.12 1.219-3.026A8.422 8.422 0 0 0 0 2.371h4.063A17.713 17.713 0 0 1 8.35.573c1.504-.41 3.039-.6 4.604-.57 1.535-.03 3.04.16 4.514.57a17.09 17.09 0 0 1 4.198 1.798H26a8.68 8.68 0 0 0-1.309 2.5 6.107 6.107 0 0 1 1.241 3.003 6.214 6.214 0 0 1-.429 3.179 6.246 6.246 0 0 1-1.986 2.587zM11.691 8.641c0-.935-.233-1.783-.7-2.543a5.246 5.246 0 0 0-1.873-1.82 5.086 5.086 0 0 0-2.595-.68c-.948 0-1.821.227-2.618.68A5.134 5.134 0 0 0 2.009 6.12a4.8 4.8 0 0 0-.7 2.521 4.8 4.8 0 0 0 .7 2.522 5.134 5.134 0 0 0 1.896 1.841c.797.453 1.67.68 2.618.68.947 0 1.813-.227 2.595-.68a5.187 5.187 0 0 0 1.873-1.841 4.8 4.8 0 0 0 .7-2.522zM13 8.16a6.187 6.187 0 0 1 .993-2.894A6.407 6.407 0 0 1 16.25 3.16a6.416 6.416 0 0 1 3.024-.833 15.866 15.866 0 0 0-6.32-1.25 16.948 16.948 0 0 0-6.319 1.25c1.114.03 2.137.3 3.07.811a6.34 6.34 0 0 1 2.28 2.105A6.189 6.189 0 0 1 13 8.159zM24.375 6.93a5 5 0 0 0-1.557-2.17 5.09 5.09 0 0 0-2.438-1.075 5.409 5.409 0 0 0-2.686.241 4.936 4.936 0 0 0-2.189 1.513 5.117 5.117 0 0 0-1.128 2.368 4.623 4.623 0 0 0 .248 2.587 4.85 4.85 0 0 0 1.557 2.149 5.374 5.374 0 0 0 2.415 1.074c.903.161 1.798.08 2.686-.241a5.164 5.164 0 0 0 2.212-1.513A4.802 4.802 0 0 0 24.6 9.518c.15-.877.075-1.74-.226-2.587zM9.66 8.597c0 .848-.316 1.579-.948 2.193a3.154 3.154 0 0 1-2.28.92 3.154 3.154 0 0 1-2.28-.92c-.631-.614-.947-1.352-.947-2.215 0-.862.316-1.6.948-2.214a3.154 3.154 0 0 1 2.28-.92c.887 0 1.647.306 2.279.92.632.614.948 1.36.948 2.236zm-1.129 0v-.043c0-.556-.203-1.03-.61-1.426a2.057 2.057 0 0 0-1.489-.591c-.587 0-1.083.197-1.49.591a1.94 1.94 0 0 0-.609 1.447c0 .57.203 1.053.61 1.448.406.394.902.591 1.49.591.586 0 1.083-.197 1.489-.591.406-.395.61-.87.61-1.426zm14.174 0c0 .848-.316 1.579-.948 2.193a3.154 3.154 0 0 1-2.28.92 3.154 3.154 0 0 1-2.28-.92c-.631-.614-.947-1.352-.947-2.215 0-.862.316-1.6.948-2.214a3.154 3.154 0 0 1 2.28-.92c.887 0 1.64.306 2.256.92.617.614.94 1.36.97 2.236zm-1.129 0c0-.584-.203-1.074-.609-1.469a2.057 2.057 0 0 0-1.49-.591c-.586 0-1.083.197-1.49.591a1.94 1.94 0 0 0-.609 1.447c0 .57.204 1.053.61 1.448.406.394.903.591 1.49.591.586 0 1.083-.197 1.489-.591.406-.395.61-.87.61-1.426z"/>
</svg>
