<svg xmlns="http://www.w3.org/2000/svg" width="20" height="20" viewBox="0 0 20 20">
    <path fill="#FFF" fill-rule="evenodd" d="M10 4.866c.923 0 1.778.23 2.567.692a5.149 5.149 0 0 1 1.875 1.875c.461.789.692 1.644.692 2.567 0 .923-.23 1.778-.692 2.567a5.149 5.149 0 0 1-1.875 1.875 4.996 4.996 0 0 1-2.567.692c-.923 0-1.778-.23-2.567-.692a5.15 5.15 0 0 1-1.875-1.875A4.996 4.996 0 0 1 4.866 10c0-.923.23-1.778.692-2.567a5.15 5.15 0 0 1 1.875-1.875A4.996 4.996 0 0 1 10 4.866zm0 8.482c.923 0 1.711-.327 2.366-.982A3.225 3.225 0 0 0 13.348 10c0-.923-.327-1.711-.982-2.366A3.225 3.225 0 0 0 10 6.652c-.923 0-1.711.327-2.366.982A3.225 3.225 0 0 0 6.652 10c0 .923.327 1.711.982 2.366a3.225 3.225 0 0 0 2.366.982zm6.562-8.705a1.39 1.39 0 0 1-.379.848 1.087 1.087 0 0 1-.826.357c-.327 0-.61-.119-.848-.357a1.159 1.159 0 0 1-.357-.848c0-.328.119-.61.357-.848s.52-.357.848-.357c.327 0 .61.119.848.357s.357.52.357.848zm3.393 1.205c.03.834.045 2.217.045 4.152s-.022 3.326-.067 4.174c-.045.848-.171 1.585-.38 2.21a5.203 5.203 0 0 1-1.227 1.942c-.55.55-1.198.96-1.942 1.228-.625.208-1.362.334-2.21.379-.848.045-2.24.067-4.174.067-1.935 0-3.326-.022-4.174-.067-.848-.045-1.585-.186-2.21-.424a4.759 4.759 0 0 1-1.942-1.183 5.203 5.203 0 0 1-1.228-1.942c-.208-.625-.334-1.362-.379-2.21C.022 13.326 0 11.934 0 10c0-1.935.022-3.326.067-4.174.045-.848.171-1.585.38-2.21a5.203 5.203 0 0 1 1.227-1.942c.55-.55 1.198-.96 1.942-1.228.625-.208 1.362-.334 2.21-.379C6.674.022 8.066 0 10 0c1.935 0 3.326.022 4.174.067.848.045 1.585.171 2.21.38a5.203 5.203 0 0 1 1.942 1.227c.55.55.96 1.198 1.228 1.942.208.625.342 1.37.401 2.232zm-2.143 10.045c.179-.506.298-1.31.358-2.41.03-.656.044-1.578.044-2.769V9.286c0-1.22-.015-2.143-.044-2.768-.06-1.131-.179-1.935-.358-2.41-.357-.923-.997-1.563-1.92-1.92-.475-.18-1.279-.298-2.41-.358a65.133 65.133 0 0 0-2.768-.044H9.286c-1.19 0-2.113.015-2.768.044-1.101.06-1.905.179-2.41.357-.923.358-1.563.998-1.92 1.92-.18.476-.298 1.28-.358 2.41-.03.656-.044 1.578-.044 2.769v1.428c0 1.19.015 2.113.044 2.768.06 1.101.179 1.905.357 2.41.387.923 1.027 1.563 1.92 1.92.506.18 1.31.298 2.41.358.656.03 1.578.044 2.769.044h1.428c1.22 0 2.143-.015 2.768-.044 1.131-.06 1.935-.179 2.41-.358.923-.386 1.563-1.026 1.92-1.92z"/>
</svg>
