<svg xmlns="http://www.w3.org/2000/svg" width="20" height="27" viewBox="0 0 20 27">
    <path fill="#FFF" fill-rule="evenodd" d="M6.964 16.674l-.157.011c-3.72.25-5.675.348-5.866.297-.31-.118-.5-.365-.57-.74-.065-.266-.051-.636.042-1.11.123-.714.328-1.478.614-2.291.273-.639.502-1.111.687-1.418.324-.446.69-.598 1.094-.454.128.035 1.335.945 3.621 2.732l1.143.894c.26.176.396.435.407.776.01.341-.077.638-.264.89a.983.983 0 0 1-.751.413zm4.292-4.936c-.137.64-.367 1.085-.69 1.337-.324.251-.653.27-.988.055-.335-.214-.587-.646-.754-1.296l-2.87-9.738c.016-.316.188-.572.514-.77.457-.304 1.484-.474 3.08-.509 1.597-.035 2.649.087 3.154.365.324.193.494.452.51.777-.022.208-.327 1.727-.915 4.56l-1.04 5.22zM8.96 19.931l-.014.05c-1 3.86-1.55 5.848-1.649 5.964-.207.265-.5.4-.877.406-.495-.062-1.259-.462-2.29-1.2-.684-.505-1.166-.936-1.445-1.296-.498-.56-.606-1.052-.322-1.474.108-.149 1.282-1.027 3.522-2.633l1.398-1.013c.263-.215.545-.282.848-.2.302.08.544.261.725.54.181.28.216.566.104.856zm10.222-3.56c-.154.065-1.605.068-4.354.007l-1.745.014.061-.037a1 1 0 0 1-.765-.392c-.206-.251-.3-.535-.285-.85.017-.317.156-.582.418-.796l1.316-1.09c2.125-1.814 3.26-2.738 3.406-2.77.308-.131.615-.067.92.193.361.31.738 1.07 1.131 2.278.394 1.21.55 2.088.472 2.636l-.027.1c-.098.365-.28.6-.548.707zm-1.27 6.653c-.197.48-.812 1.117-1.843 1.908-1.031.792-1.797 1.227-2.296 1.307-.386.039-.664-.071-.833-.33-.078-.092-.377-1.08-.896-2.963l-.835-3c-.097-.275-.056-.557.124-.847.18-.29.42-.484.72-.581a.916.916 0 0 1 .838.118l2.422 1.663c1.624 1.076 2.47 1.676 2.539 1.801.17.26.19.567.06.924z"/>
</svg>
