<svg xmlns="http://www.w3.org/2000/svg" width="30" height="43" viewBox="0 0 30 43">
    <path fill="#FFF" fill-rule="evenodd" d="M27.179 27.67c0 6.883-5.463 12.482-12.179 12.482-6.715 0-12.179-5.62-12.179-12.53V15.378c0-6.909 5.464-12.53 12.179-12.53 6.716 0 12.179 5.621 12.179 12.53V27.67zM15 0C6.729 0 0 6.898 0 15.377v12.246C0 36.102 6.729 43 15 43c8.27 0 15-6.877 15-15.33V15.377C30 6.898 23.27 0 15 0zm0 11.77c-.78 0-1.41.638-1.41 1.424v4.984c0 .786.63 1.424 1.41 1.424.78 0 1.41-.638 1.41-1.424v-4.984c0-.786-.63-1.424-1.41-1.424"/>
</svg>
