<svg xmlns="http://www.w3.org/2000/svg" width="20" height="18" viewBox="0 0 20 18">
    <path fill="#B19268" fill-rule="evenodd" d="M17.761 8.825v8.526a.644.644 0 0 1-.64.649h-4.797a.644.644 0 0 1-.64-.649v-4.089h-3.22v4.089a.644.644 0 0 1-.639.649H3.05a.644.644 0 0 1-.64-.65V8.687L1.073 9.932a.633.633 0 0 1-.904-.039.656.656 0 0 1 .038-.917L9.652.171a.633.633 0 0 1 .87.004l9.275 8.805a.656.656 0 0 1 .03.918.633.633 0 0 1-.904.03l-1.162-1.103zM3.69 7.493v9.209h3.497v-4.09c0-.358.286-.648.64-.648h4.498c.353 0 .64.29.64.649v4.089h3.518V7.61l-6.4-6.076-6.393 5.96z"/>
</svg>
