<svg xmlns="http://www.w3.org/2000/svg" width="40" height="36" viewBox="0 0 40 36">
    <path fill="#FFF" fill-rule="evenodd" d="M36.809 23.718h-4.227l-.056-1.271h4.283v1.27zm-7.653-4.66H31.1l.572 13.098c-.943-.096-1.49-.397-2.108-.736-.79-.434-1.687-.926-3.394-.926s-2.603.492-3.393.926c-.75.412-1.399.768-2.777.768-1.378 0-2.026-.356-2.777-.768-.79-.434-1.686-.926-3.393-.926-1.707 0-2.603.492-3.394.926-.177.098-.35.192-.527.28-.44.216-.91.388-1.582.456L8.9 19.06h17.703a.637.637 0 0 0 .638-.635.637.637 0 0 0-.638-.636H8.104l.167-3.811h23.458l.167 3.811h-2.74a.637.637 0 0 0-.638.636c0 .35.285.635.638.635zM12.98 7.2h1.276v1.482a.637.637 0 0 1-1.276 0V7.2zm5.957-.635c0-.584.477-1.06 1.064-1.06.587 0 1.064.476 1.064 1.06v6.14h-2.128v-6.14zm6.809.635h1.276v1.482a.638.638 0 0 1-1.276 0V7.2zM7.419 23.718H3.192v-1.271h4.282l-.055 1.27zm32.037-15.24a.638.638 0 0 0-.726.534l-1.833 12.164h-4.426l-.093-2.117h.184a.64.64 0 0 0 .638-.663l-.222-5.082a.637.637 0 0 0-.638-.608h-5.319v-2.227a1.91 1.91 0 0 0 1.277-1.797V6.565a.637.637 0 0 0-.638-.636h-2.554a.637.637 0 0 0-.638.636v2.117a1.91 1.91 0 0 0 1.277 1.797v2.227H22.34V6.565a2.335 2.335 0 0 0-1.702-2.241V.635A.637.637 0 0 0 20 0a.637.637 0 0 0-.638.635v3.689a2.335 2.335 0 0 0-1.702 2.24v6.142h-3.405v-2.227a1.91 1.91 0 0 0 1.277-1.797V6.565a.637.637 0 0 0-.638-.636H12.34a.637.637 0 0 0-.639.636v2.117a1.91 1.91 0 0 0 1.277 1.797v2.227h-5.32a.637.637 0 0 0-.637.608L6.8 18.396a.633.633 0 0 0 .638.663h.184l-.092 2.117H3.103L1.27 9.012A.638.638 0 0 0 .007 9.2l1.908 12.66v13.505c0 .35.286.635.638.635a.637.637 0 0 0 .639-.635V24.988h4.171l-.341 7.808a.635.635 0 0 0 .638.663c.788 0 1.403-.106 1.915-.262v2.168c0 .35.285.635.638.635a.637.637 0 0 0 .638-.635v-2.722l.202-.11c.624-.343 1.178-.646 2.139-.739v3.57c0 .352.285.636.638.636a.637.637 0 0 0 .638-.635v-3.57c.96.092 1.515.395 2.139.738.79.434 1.686.926 3.393.926 1.707 0 2.603-.492 3.394-.926.623-.343 1.178-.646 2.138-.739v3.57c0 .352.285.636.638.636a.637.637 0 0 0 .638-.635v-3.57c.96.092 1.515.395 2.14.738l.2.11v2.722c0 .35.287.635.64.635a.637.637 0 0 0 .637-.635v-2.168c.512.156 1.127.262 1.915.262a.64.64 0 0 0 .638-.663l-.341-7.808h4.171v10.377c0 .35.286.635.639.635a.637.637 0 0 0 .638-.635V21.859L39.993 9.2a.636.636 0 0 0-.537-.722z"/>
</svg>
