<svg xmlns="http://www.w3.org/2000/svg" width="5" height="5" viewBox="0 0 5 5">
    <path fill="#FFF" fill-rule="evenodd" d="M3.398 3.605c.135.027.188-.066.207-.206a.153.153 0 0 0-.207.206m-.933-.621c.126-.002.217-.054.272-.157-.157-.045-.217.053-.272.157m-.48-.101c.118.109.448-.072.371-.242-.14.055-.318.06-.37.242m1.961-1.794C3.393.614 2.466.532 1.96.958c.163.027.374-.12.452.059-.149.34-.824.145-.748.661.327.049.606-.421.86-.176-.086.229-.357.186-.45.404.737.112 1.076.365 1.178.886-.256.159-.676.29-.703.636 1.092-.167 2.216-1.157 1.4-2.34M5 1.699c-.168-.413-.316-.84-.824-1.06.133.571.465 1.276.65 1.913-.432 1.605-2.125 3.25-3.96 2.019C-1.836 2.758 2.442-1.96 4.733.897c.177.221.209.462.266.802" opacity=".4"/>
</svg>
