<svg xmlns="http://www.w3.org/2000/svg" width="579" height="124" viewBox="0 0 579 124">
    <path fill="#FFF" fill-rule="evenodd" d="M428.76 21.804c-6.238 0-11.161 2.09-14.771 6.267-3.61 4.178-5.416 9.898-5.416 17.16 0 7.472 1.74 13.244 5.221 17.318 3.481 4.073 8.444 6.11 14.888 6.11 3.96 0 8.475-.716 13.548-2.147v5.818c-3.934 1.483-8.786 2.225-14.558 2.225-8.359 0-14.81-2.55-19.351-7.653-4.542-5.102-6.813-12.351-6.813-21.748 0-5.883 1.094-11.037 3.28-15.462 2.187-4.426 5.344-7.835 9.472-10.23 4.128-2.395 8.987-3.593 14.577-3.593 5.952 0 11.154 1.094 15.606 3.28l-2.795 5.701c-4.297-2.03-8.593-3.046-12.889-3.046zm61.566 51.932l-7.065-18.156h-22.748l-6.988 18.156h-6.677l22.438-57.32h5.551l22.322 57.32h-6.833zm-9.274-24.28l-6.6-17.687c-.853-2.238-1.733-4.985-2.64-8.238-.568 2.499-1.384 5.245-2.445 8.238l-6.677 17.688h18.362zm30.3 24.045h-6.599V16.417h31.638v5.896h-25.039v20.889h23.525v5.896h-23.525V73.5zm67.648 0h-31.638V16.417H579v5.896h-25.039v18.39h23.525v5.857h-23.525v21.007H579V73.5zm-2.904-60.865h.332l-4.771-7.124L568.174 0H557.74l12.69 12.636h5.665zM0 15.322h24.67c7.645 0 13.38 1.033 17.203 3.1 3.822 2.066 5.734 5.551 5.734 10.455 0 7.549-4.538 12.067-13.614 13.555 11.001 1.543 16.502 6.337 16.502 14.547 0 6.006-2.256 10.207-6.766 12.604-4.51 2.397-11.001 3.595-19.472 3.595H0v-1.57h5.363V16.893H0v-1.57zm21.85 29.003v27.688h3.879c3.025 0 5.143-1.046 6.353-3.14 1.21-2.094 1.815-5.18 1.815-9.257v-4.38c0-3.638-.743-6.365-2.228-8.183-1.485-1.819-4.125-2.728-7.92-2.728H21.85zm0-27.361v25.457h2.146c2.86 0 4.854-.868 5.982-2.604 1.127-1.736 1.691-4.394 1.691-7.976v-3.884c0-4.078-.495-6.93-1.485-8.555-.99-1.625-2.888-2.438-5.693-2.438h-2.64zm72.39 30.943v-6.116c0-10.084-.496-16.448-1.486-19.093-1.1-3.03-2.667-4.904-4.703-5.62-1.155-.44-2.557-.661-4.207-.661s-3.067.22-4.25.66c-1.182.442-2.158 1.213-2.929 2.315a16.264 16.264 0 0 0-1.856 3.472c-.468 1.212-.839 2.92-1.114 5.124-.33 3.196-.495 7.907-.495 14.133v5.951c0 6.723.261 11.503.784 14.34.522 2.838 1.169 4.863 1.939 6.075 1.705 2.7 4.345 4.05 7.92 4.05 4.346 0 7.165-1.832 8.458-5.496 1.292-3.664 1.939-10.042 1.939-19.134zm-10.582 26.46c-9.186 0-16.047-2.493-20.585-7.48s-6.807-12.205-6.807-21.655c0-9.45 2.434-16.888 7.302-22.316 4.868-5.427 11.757-8.14 20.668-8.14 8.91 0 15.635 2.575 20.173 7.727 4.538 5.152 6.807 12.467 6.807 21.944 0 9.477-2.297 16.833-6.89 22.068-4.593 5.235-11.482 7.852-20.668 7.852zm32.697-59.045h29.703v1.819h-8.746v54.22h2.97c4.676 0 8.403-1.434 11.18-4.299 2.778-2.865 5.597-7.273 8.457-13.224h1.733l-1.568 19.34h-43.729V71.36h4.868V17.14h-4.868v-1.818zm88.777 32.585v-6.116c0-10.084-.495-16.448-1.485-19.093-1.1-3.03-2.668-4.904-4.703-5.62-1.155-.44-2.558-.661-4.208-.661-1.65 0-3.066.22-4.249.66-1.182.442-2.159 1.213-2.929 2.315a16.265 16.265 0 0 0-1.856 3.472c-.468 1.212-.84 2.92-1.114 5.124-.33 3.196-.495 7.907-.495 14.133v5.951c0 6.723.261 11.503.784 14.34.522 2.838 1.169 4.863 1.939 6.075 1.705 2.7 4.345 4.05 7.92 4.05 4.346 0 7.165-1.832 8.457-5.496 1.293-3.664 1.94-10.042 1.94-19.134zm-10.581 26.46c-9.186 0-16.048-2.493-20.586-7.48s-6.807-12.205-6.807-21.655c0-9.45 2.434-16.888 7.302-22.316 4.868-5.427 11.758-8.14 20.669-8.14 8.91 0 15.635 2.575 20.173 7.727 4.538 5.152 6.806 12.467 6.806 21.944 0 9.477-2.296 16.833-6.889 22.068-4.593 5.235-11.482 7.852-20.668 7.852zm63.131-1.653c2.695 0 4.414-.496 5.157-1.488.742-.992 1.114-2.672 1.114-5.042V50.15h-5.28v-1.818h23.761v1.818h-3.217v23.308h-1.238c-.99-1.378-2.393-2.067-4.208-2.067-.77 0-3.066.496-6.89 1.488-3.822.992-7.081 1.488-9.777 1.488-8.965 0-15.91-2.425-20.833-7.273-4.923-4.85-7.384-12.136-7.384-21.862 0-9.725 2.571-17.233 7.714-22.522 5.143-5.29 12.06-7.935 20.751-7.935 3.355 0 6.724.427 10.107 1.281 3.383.854 5.35 1.281 5.9 1.281.55 0 .962-.124 1.237-.372.275-.248.578-.675.908-1.28h.907l.66 17.935h-1.485c-2.695-5.345-5.404-9.547-8.127-12.605-2.723-3.058-5.762-4.587-9.117-4.587-8.416 0-12.624 8.238-12.624 24.713v6.53c0 8.265 1.032 14.505 3.094 18.72 2.063 4.215 5.02 6.323 8.87 6.323zm76.273-55.821v56.285h-11.552l-28.3-53.475v51.905h4.538v1.57h-11.303v-1.57h4.538V16.893h-4.538v-1.57h22.772l21.617 41.49v-39.92h-4.538v-1.57h11.303v1.57h-4.537zm42.065 55.211l-6.023-17.853h-16.336l-6.353 17.853h6.188v1.57h-12.624v-1.57h3.878l21.04-56.782h6.765l20.792 56.782h3.795v1.57h-26.98v-1.57h5.858zm-13.735-41.46L354.529 52.3h14.934l-7.178-21.654zM98.46 109.49c.403-.557 1.656.058 1.887-.712-.083-.435-.277-.695-.595-.759 2.177-.517 1.704 2.729.128 3.385-.37-.772.493-.733.289-1.398-.301-.597-1.03-.513-1.71-.516zm6.611 1.656c-1.239.377-1.805-.298-2.605-.615.517-.745.168-1.576-.118-2.643.23-.215.62-.324.915-.497.177.433-.168.496.148.709.585-.086 1.402-.288 1.709.513-.33.695-.986.024-1.807.398-.274.185-.42.457-.24.942.615.48 1.754.13 1.998 1.193zm-5.809-3.854c1.265 1.146 3.034 1.558 4.97.091-.35.773-1.48 1.015-2.329 1.448.23 1.076 1.441 2.149.287 2.837-.524-.455.064-1.28-.278-2.075-.454-1.054-2.019-1.37-3.08-.827-.327.629.72.783.516 1.105-.528.015-1.053.025-1.696.233-.281 1.236.863 1.473 1.743 1.435-.262.508-.363 1.38.22 1.785 1.292-.047 1.394-.902 1.877-1.497.413-.15.386.41.566.635 1.239-.414 3.304 2.271 4.214-.04-.104-1.2-2.844-1.538-.713-1.365 1.694-.977-.683-2.119.07-3.226-.21-.366-.49-.626-.98-.542.222-.498 1.739-.582 2.037-.003.545.61-.273.852-.122 1.556.261.542 1.017.287.993 1.3-.214.57-1.125.666-1.354 1.225-.022 1.01 1.192 1.037.833 1.948-1.745 1.528-3.726-.533-6.112.016-2.19.504-2.783 2.235-4.146 3.235-3.101 2.275-8.02 2.285-11.719 2.511-5.184.319-10.046.999-14.142-.316 4.302-.402 8.167.016 13.298-.254 1.668-.09 4.1-.018 5.268-.588 1.35-.658 1.615-2.537-.176-3.017-2.273-.607-5.767.302-8.648.44-3.187.152-6.248.158-8.841.178-.664.005-1.177.185-1.656-.473 5.14-.833 10.72-.157 15.925-.94 1.64-.247 3.127-.758 3.828-1.94-1.137-1.624-2.945-1.03-4.698-.917-4.952.323-10.352.052-15.048-.49.994-.498 1.638-.3 3.234-.338 2.062-.048 4.574-.192 6.944-.205 3.483-.017 6.199.491 8.947-1.118.774-1.076.16-2.519-.902-3.003-4.67-.13-9.82-.042-14.597-.195-1.509-.047-1.627.207-2.855-.596 8.034-.103 16.245-2.055 23.457-1.184 2.273.274 3.268 1.724 4.865 3.171zm56.466 1.683c-.202.305-.924-.17-1.451.023.235-.66.944-.041 1.45-.023zm-5.614-.477c.21-.503.812-.037 1.25-.275-.191.467-.877.14-1.25.275zm2.35-1.035c-.1.691-.904.157-1.502.48.114-.485 1.068-.551 1.503-.48zm-.771 3.807c-.207.013-.135-.413-.366-.365.175-.213.255-.486.606-.58-.155.265-.177.62-.24.945zm1.468-1.942c-.364.437-1.168-.041-1.841.258.454-.581 1.295-.16 1.84-.258zm-5.862-2.392c-.031 1.096 1.16 1.341 2.056 1.517-1.235.99-2.064-.696-2.861-1.183-.219.314-.393.658-.348 1.148l-.834.189c.115-.864.976-1.826 1.987-1.67zm-3.614 2.68c.122.367-.096.51-.466.55l-.12-.566c.149.08.346.082.586.017zm-35.472.136c-.254.389-1.285.402-1.669.37.47-.645.954-.255 1.67-.37zm15.805.752c2.467.1 5.563-.072 7.84-.118 3.02-.058 6.102.011 8.785-.504 1.045-.198 2.4-.59 3.144-1.07.737-.474 1.33-1.675 2.103-1.937 1.827-.622 3.218 1.61 4.814 1.56 1.466-.045 3.625-2.247 3.943.815 1.452 1.02 4.445.312 4.824 2.356.54 2.924-3.969 1.308-5.304 2.702-.405.425-.711 2.107-1.149 2.349-1.871 1.032-3.139-1.521-4.42-1.02-1.17 1.056-1.644 3.637-3.748 1.696-.181-.567-.15-.983.04-1.287-.476-.673-1.128-1.054-1.633-1.682-5.41-.832-11.6-1.39-17.845-1.16-6.047.22-12.356.39-17.91.77.402-1.383 2.474-.217 3.312-.952 3.305.597 7.75-.206 11.526.117 3.264-.194 6.765-.592 10.098-.496 1.473.04 2.914.747 4.384.069 3.054.564 6.25.883 8.868 2.186.608.197.078 1.607.799 1.884 1.364-.136 1.706-1.325 1.377-1.926 1.654-1.242 2.7.227 3.94.814.76-.431.778-1.384 1.043-2.164 1.413-1.141 3.773.353 4.227-1.49-.54-1.843-2.52-1.427-3.783-1.486-.777-.16.254-.9-.234-1.221-1.351-1.356-2.908 1.12-4.633.15-.174-.928-.645-1.636-1.466-1.563-1.044.088-1.262 1.35-2.212 2.122-1.422 1.153-2.995 1.078-4.624.945-1.702.586-5.026.483-7.334.477-.698-.002-1.427.039-2.039.008-7.375-.37-15.315-.187-22.833-.606.018-.972-.723-.663-.85-1.391 3.666.991 8.078.34 12.34.561 1.5.076 2.987.428 4.61.492zm23.411-6.271c1.193-.912 1.724.292 1.858 1.246-.648-.786-4.36-1.252-5.545.642-.179-1.872 1.339-2.012 2.307-2.94.737-.097 1.087.431 1.38 1.052zm6.127-.449c.287.185.469.537.514 1.115.59.147 1.538-.297 1.708.534-.552.045-.627.42-1.222.435-1.163-2.3-3.223.767-4.858-.27.947-.023 1.176-.981 1.882-1.513.868.3 1.018.133 1.976-.3zm4.5 3.398c.452-.352 1.13-.714 1.67-.368.26.58-.234 1.032.13 1.31.33.233.903.085 1.34.148.335.416.642.877.776 1.616-.14.522-1.1.499-1.243 1.018-.306.535.58.338.516 1.074-.293.62-1.416.546-1.838.257-.533.3-.003 1.305-.875 1.38-.75-.52-2.15-2.163-3.05-.664.147.715.857.536.884 1.441-.329.673-1.311.379-1.838.258-.395.363.152.644-.04 1.197-.687.518-1.68.391-1.738-.658 1.483-.163 1.598-1.232 1.699-2.308 1.724-1.212 5.932.003 5.791-2.912-.126-2.625-3.37-2.122-5.037-3.204.885-.253 1.637-.963 2.504-.55.398.21-.09.727.35.965zm-7.494 7.262c.178-.206.931.287 1.37.293-.09.392.04.924-.684.896-.311-.268-.294-1.051-.686-1.189zm-3.541 1.505c.32 2.19-3.282 1.782-2.626-.015-.143-.281-.388-.402-.564-.63-.552-.036-.11.593-.609.59a11.36 11.36 0 0 0-.505-.34c-.027-.721.913-.794 1.183-1.32.446 1.419 2.227 2.283 3.477 1.332.721-.548.479-1.605 1.512-1.847-.946.556.231 1.78-.021 2.722-.825.17-1.136-.488-1.847-.492zm-63.318-6.185c1.742.063 5.642-.675 4.682 1.795-3.063 1.652-6.675.81-10.265.89-3.146.073-6.298.176-9.105 1.022.44 1.55 2.354 1.563 3.721 1.59 2.17.042 4.3.28 6.995.353 2.868.078 6.61-.65 9.313-.031-5.379 2.97-11.695.989-17.236 1.846-.852.132-1.824.279-2.607.98.678 1.609 2.92 1.472 4.756 1.5 1.128.02 2.89.035 4.14-.013 2.261-.087 4.947-.195 6.954-.729 2.007-.534 4.698-.554 4.954.65.07.331-.545 1.012-.797 1.15-1.547.84-4.474-.064-6.186.038-3.372.202-7.056.275-9.65.241-1.072-.013-2.613.123-3.715 1.04l.148.764c1.458.446 4.351.813 6.428.852 3.43.069 8.571-.538 12.8-.824 3.973-.265 8.31-1.51 10-4.779 2.62-2.61 5.226.256 7.255-.138.645-.124 1.05-.74 1.69-1.043 2.042-.957 4.565-.806 6.523-.918 9.508-.546 20.27-.517 28.529.682.439.47 1.047.656 1.296 1.441-.737.667-2.256 1.329-1.705 2.481 1.616.505 2.193 2.764 4.377 2.304.32-.388.915-.584.939-1.182.57.298 1.656.016 2.086-.498.152-.893-.468-1.563-.273-2.166.975-.102.956 1.485 1.556 2.02 1.125-.791 2.084.416 3.071.063.584-.21.52-.966 1.046-1.365.597-.451 1.314.121 1.61-.704.22-.694-.186-1.606-.212-1.86.692.888 2.847 2.198 3.041-.091.676.227 1.529-.127 2.058-.652.242-.267.223-1.118-.125-1.404 1.324-.696 1.098-2.278.217-3.4-.34-.37-.909-.353-1.4-.464.192-.713-.104-1.357-.603-1.608-1.26-.633-1.848-.782-3.159-.523-.175-1.116-.941-1.238-1.825-1.155-.077-.88-.534-1.12-1.101-1.177-.9.053-1.286.542-2.286.228-.75.263-.538 1.596-1.493 1.317.097-.487-.028-1.13-.294-1.526-1.301.192-2.354-1.131-3.524-.913-.817.153-1.63.518-2.36 1.361-.707.819-.692 3.161-1.22 3.48-.645.386-2.06.445-3.093.58-3.523.453-7.647.032-11.33.155-7 .233-14.36.07-20.518-.681-1.384-4.205-5.441 1.365-7.679-.557-1.197-1.528-2.802-3.298-4.643-3.676-4.084-.835-10.326-.188-15.542.205-4.039.303-7.9.325-11.092 1.372.666 1.484 2.339 1.641 3.902 1.714 3.472.164 7.112-.17 10.951-.037zm394.972 1.74c-.403.557-1.656-.058-1.887.712.084.435.277.695.595.759-2.177.517-1.704-2.729-.128-3.385.37.772-.493.733-.288 1.398.3.597 1.03.513 1.708.516zm-7.035-1.819c1.239-.376 1.805.299 2.604.615-.516.745-.167 1.577.12 2.643-.231.216-.622.325-.916.497-.177-.433.168-.496-.148-.708-.586.085-1.402.287-1.709-.514.33-.695.986-.023 1.806-.398.275-.185.42-.456.241-.942-.615-.479-1.754-.13-1.998-1.193zm6.593 6.817c-1.265-1.145-3.035-1.557-4.97-.09.35-.773 1.48-1.015 2.328-1.448-.228-1.076-1.44-2.15-.286-2.837.524.454-.065 1.28.278 2.075.454 1.054 2.019 1.369 3.08.827.326-.629-.72-.783-.516-1.105.528-.015 1.052-.025 1.696-.233.281-1.236-.863-1.473-1.743-1.435.262-.508.363-1.381-.22-1.785-1.293.046-1.394.902-1.877 1.497-.413.15-.386-.411-.566-.636-1.239.415-3.304-2.27-4.214.042.104 1.198 2.844 1.536.713 1.363-1.694.977.683 2.12-.071 3.226.212.367.49.626.98.543-.22.497-1.738.582-2.036.003-.545-.61.273-.853.121-1.556-.26-.543-1.016-.288-.993-1.3.215-.57 1.126-.666 1.355-1.225.022-1.01-1.192-1.037-.833-1.949 1.745-1.527 3.726.533 6.112-.015 2.19-.504 2.783-2.236 4.146-3.235 3.101-2.276 8.019-2.285 11.718-2.511 5.185-.319 10.047-1 14.143.315-4.302.403-8.167-.015-13.298.254-1.668.09-4.1.019-5.268.589-1.35.658-1.615 2.537.176 3.016 2.273.607 5.767-.302 8.648-.439 3.187-.152 6.247-.158 8.841-.178.663-.005 1.176-.185 1.656.472-5.141.834-10.72.158-15.925.94-1.64.247-3.127.759-3.828 1.941 1.137 1.623 2.945 1.03 4.698.917 4.952-.323 10.352-.053 15.048.49-.994.498-1.638.3-3.234.338-2.062.048-4.574.192-6.945.204-3.482.018-6.198-.49-8.946 1.118-.774 1.076-.16 2.52.902 3.003 4.67.13 9.82.043 14.597.195 1.509.048 1.627-.207 2.855.596-8.035.103-16.245 2.056-23.457 1.185-2.273-.275-3.268-1.724-4.865-3.172zm-57.547-4.692c.202-.305.924.17 1.452-.023-.236.658-.945.04-1.452.023zm5.614.476c-.21.504-.812.037-1.25.275.191-.466.877-.139 1.25-.275zm-1.804 1.035c.1-.691.904-.157 1.502-.48-.114.485-1.068.552-1.502.48zm.226-3.806c.206-.014.134.412.365.364-.175.213-.254.486-.606.58.155-.265.177-.62.24-.944zm-1.312 1.962c.364-.438 1.168.04 1.842-.259-.454.582-1.296.161-1.842.259zm5.882 2.704c.031-1.096-1.16-1.341-2.056-1.517 1.235-.99 2.064.696 2.861 1.183.219-.314.393-.658.349-1.148l.834-.189c-.116.865-.977 1.826-1.988 1.67zm3.437-3.013c-.121-.366.096-.51.466-.55l.12.567c-.149-.081-.346-.083-.586-.017zm35.472-.135c.254-.39 1.285-.403 1.669-.37-.47.645-.954.254-1.67.37zm-15.436 3.99c-2.467-.101-5.564.072-7.841.117-3.019.058-6.102-.01-8.785.504-1.045.199-2.4.59-3.144 1.07-.737.474-1.33 1.676-2.103 1.937-1.827.622-3.218-1.61-4.814-1.56-1.466.045-3.624 2.247-3.943-.815-1.452-1.02-4.444-.311-4.823-2.355-.541-2.925 3.968-1.308 5.303-2.703.405-.425.712-2.107 1.149-2.349 1.872-1.031 3.14 1.522 4.42 1.02 1.17-1.056 1.644-3.636 3.749-1.695.18.566.15.982-.04 1.286.475.673 1.127 1.054 1.633 1.682 5.409.832 11.6 1.39 17.844 1.16 6.047-.219 12.356-.39 17.91-.77-.402 1.383-2.473.217-3.311.953-3.306-.597-7.75.205-11.526-.118-3.265.195-6.766.593-10.099.496-1.472-.04-2.913-.746-4.384-.068-3.054-.564-6.25-.884-8.868-2.186-.608-.198-.078-1.607-.798-1.884-1.365.136-1.706 1.324-1.377 1.925-1.655 1.242-2.7-.226-3.941-.814-.76.432-.777 1.385-1.042 2.164-1.414 1.141-3.773-.352-4.228 1.49.54 1.844 2.521 1.428 3.784 1.486.776.16-.254.9.233 1.222 1.352 1.355 2.909-1.121 4.633-.151.174.929.645 1.636 1.467 1.564 1.043-.089 1.261-1.351 2.211-2.123 1.422-1.152 2.995-1.077 4.624-.945 1.702-.586 5.026-.482 7.334-.477.699.002 1.427-.039 2.039-.008 7.375.37 15.315.188 22.833.606-.017.972.724.663.85 1.392-3.666-.992-8.077-.341-12.34-.562-1.5-.076-2.987-.427-4.61-.491zm-23.6 2.181c-1.193.912-1.724-.292-1.858-1.247.647.786 4.36 1.253 5.544-.641.18 1.871-1.338 2.012-2.306 2.94-.737.097-1.088-.432-1.38-1.052zm-6.248.16c-.286-.184-.468-.537-.513-1.114-.59-.147-1.538.296-1.709-.534.553-.045.628-.42 1.223-.436 1.163 2.301 3.223-.767 4.858.271-.947.022-1.177.98-1.882 1.512-.869-.3-1.018-.133-1.977.301zm-3.948-2.718c-.45.352-1.13.714-1.669.368-.26-.58.234-1.033-.13-1.31-.33-.233-.903-.085-1.34-.149-.335-.415-.643-.876-.776-1.615.139-.522 1.1-.5 1.243-1.018.305-.535-.58-.339-.517-1.074.293-.62 1.416-.546 1.838-.258.533-.3.004-1.304.876-1.38.75.521 2.15 2.164 3.05.665-.147-.716-.857-.537-.884-1.441.328-.674 1.311-.38 1.838-.258.395-.363-.152-.644.04-1.197.687-.518 1.68-.391 1.737.658-1.482.162-1.597 1.232-1.698 2.308-1.724 1.212-5.933-.003-5.791 2.912.126 2.625 3.37 2.122 5.036 3.203-.884.254-1.636.964-2.503.552-.398-.211.09-.728-.35-.966zm6.883-8.306c-.178.206-.931-.286-1.37-.293.09-.391-.04-.924.685-.895.31.268.293 1.05.685 1.188zm3.922-1.081c-.32-2.19 3.281-1.782 2.626.015.142.281.388.403.564.63.551.036.11-.592.608-.59.165.118.334.23.506.34.027.721-.914.794-1.183 1.32-.447-1.419-2.227-2.283-3.478-1.332-.72.548-.478 1.605-1.512 1.847.946-.556-.23-1.78.022-2.722.825-.17 1.135.488 1.847.492zm64.152 14.8c-1.741-.062-5.642.676-4.681-1.794 3.062-1.653 6.674-.81 10.265-.891 3.146-.072 6.297-.175 9.104-1.021-.44-1.55-2.353-1.564-3.72-1.59-2.17-.042-4.301-.28-6.995-.353-2.868-.079-6.61.65-9.313.03 5.379-2.97 11.695-.988 17.235-1.845.853-.132 1.825-.28 2.607-.98-.677-1.61-2.919-1.472-4.755-1.501-1.129-.02-2.89-.034-4.141.014-2.261.086-4.946.195-6.953.729-2.008.534-4.698.554-4.954-.65-.07-.331.544-1.012.797-1.15 1.547-.84 4.474.064 6.186-.038 3.372-.202 7.055-.275 9.649-.242 1.073.014 2.613-.123 3.715-1.04l-.147-.763c-1.459-.446-4.352-.813-6.429-.853-3.43-.068-8.57.539-12.8.824-3.972.266-8.31 1.51-9.999 4.78-2.62 2.61-5.226-.257-7.255.137-.646.125-1.051.74-1.691 1.043-2.042.958-4.564.807-6.523.919-9.507.546-20.27.517-28.528-.682-.44-.47-1.048-.656-1.296-1.442.736-.666 2.255-1.328 1.704-2.48-1.615-.505-2.193-2.764-4.376-2.304-.32.387-.915.583-.94 1.181-.57-.297-1.655-.015-2.085.499-.152.893.468 1.563.272 2.166-.975.101-.956-1.485-1.555-2.02-1.125.79-2.084-.416-3.072-.063-.583.209-.52.966-1.046 1.365-.596.45-1.313-.122-1.61.704-.22.694.187 1.606.213 1.86-.693-.889-2.848-2.198-3.042.09-.675-.227-1.528.128-2.057.653-.243.267-.224 1.118.125 1.404-1.324.696-1.098 2.278-.218 3.4.34.37.91.353 1.401.463-.192.714.103 1.358.602 1.608 1.26.634 1.849.783 3.16.524.175 1.116.94 1.238 1.825 1.155.076.88.533 1.12 1.1 1.177.9-.053 1.286-.543 2.287-.229.75-.262.538-1.595 1.493-1.316-.098.487.027 1.129.293 1.526 1.302-.192 2.354 1.13 3.524.913.818-.154 1.631-.518 2.36-1.362.708-.818.692-3.16 1.221-3.48.645-.385 2.059-.444 3.092-.579 3.523-.454 7.647-.032 11.331-.155 7-.234 14.36-.07 20.518.681 1.384 4.205 5.44-1.366 7.678.557 1.198 1.528 2.803 3.297 4.644 3.676 4.084.835 10.326.188 15.542-.205 4.038-.304 7.9-.325 11.092-1.372-.667-1.484-2.34-1.642-3.903-1.715-3.471-.163-7.112.171-10.95.037zm-300.413-9.935v10.242h-1.637V96.86h5.586c2.91 0 5.061.538 6.452 1.616 1.392 1.077 2.087 2.698 2.087 4.864 0 1.575-.415 2.905-1.244 3.987-.83 1.083-2.09 1.86-3.78 2.332l6.372 10.708h-1.958l-6.051-10.242h-5.827zm.002-1.253h4.478c1.98 0 3.515-.442 4.607-1.326 1.091-.885 1.637-2.19 1.637-3.915 0-1.79-.535-3.093-1.605-3.908-1.07-.814-2.814-1.222-5.233-1.222h-3.884v10.371zm30.852 11.495h-12.825V96.86h12.825v1.511h-11.188v8.892h10.562v1.511h-10.562v10.082h11.188v1.511zm18.057-5.724c0 1.962-.72 3.516-2.159 4.663-1.44 1.147-3.352 1.72-5.738 1.72-2.868 0-5.067-.316-6.597-.948v-1.64c1.69.718 3.847 1.077 6.469 1.077 1.926 0 3.453-.442 4.582-1.326 1.129-.885 1.694-2.045 1.694-3.481 0-.89-.188-1.627-.562-2.211-.375-.585-.985-1.118-1.83-1.6-.845-.483-2.087-1.003-3.724-1.56-2.397-.825-4.053-1.718-4.968-2.677-.915-.96-1.372-2.238-1.372-3.835 0-1.758.687-3.192 2.062-4.301 1.375-1.11 3.144-1.664 5.305-1.664 2.205 0 4.275.418 6.212 1.254l-.594 1.415c-1.947-.815-3.81-1.222-5.586-1.222-1.733 0-3.113.402-4.14 1.206-1.028.804-1.542 1.897-1.542 3.28 0 .868.158 1.581.474 2.138.316.558.832 1.059 1.549 1.504.717.445 1.947.978 3.692 1.6 1.83.632 3.204 1.246 4.125 1.84.92.596 1.591 1.271 2.014 2.027.423.755.634 1.67.634 2.741zm11.172 5.724h-1.654V98.402h-7.624V96.86h16.902v1.543h-7.624v21.964zm22.279-8.2h-9.534l-3.275 8.297h-1.814l9.438-23.604h1.044l9.245 23.604h-1.846l-3.258-8.297zm-8.614-1.332h8.395l-3.194-8.474c-.268-.664-.589-1.586-.963-2.765a25.816 25.816 0 0 1-.947 2.798l-3.29 8.441zm34.462-13.975v15.21c0 2.702-.78 4.814-2.343 6.336-1.562 1.522-3.74 2.283-6.533 2.283-2.718 0-4.84-.764-6.364-2.291-1.525-1.528-2.287-3.658-2.287-6.392V96.86h1.653v15.21c0 2.262.626 4.023 1.878 5.283 1.252 1.26 3.023 1.889 5.313 1.889 2.236 0 3.97-.62 5.2-1.857 1.231-1.238 1.846-2.956 1.846-5.154V96.86h1.637zm8.146 13.265v10.242h-1.637V96.86h5.585c2.91 0 5.062.538 6.453 1.616 1.391 1.077 2.087 2.698 2.087 4.864 0 1.575-.415 2.905-1.244 3.987-.83 1.083-2.09 1.86-3.78 2.332l6.372 10.708h-1.958l-6.052-10.242h-5.826zm.001-1.253h4.479c1.98 0 3.515-.442 4.606-1.326 1.092-.885 1.637-2.19 1.637-3.915 0-1.79-.535-3.093-1.605-3.908-1.07-.814-2.814-1.222-5.232-1.222h-3.885v10.371zm28.826 3.295h-9.534l-3.275 8.297h-1.814l9.438-23.604h1.044l9.245 23.604h-1.846l-3.258-8.297zm-8.614-1.332h8.395l-3.194-8.474c-.268-.664-.589-1.586-.963-2.765a25.816 25.816 0 0 1-.947 2.798l-3.29 8.441zm34.543 9.532h-1.653l-13.9-20.87h-.129c.129 2.487.193 4.362.193 5.627v15.243h-1.573V96.86h1.637l13.884 20.838h.097c-.097-1.93-.145-3.762-.145-5.499v-15.34h1.59v23.508zm12.427 0H375.4V98.402h-7.624V96.86h16.902v1.543h-7.625v21.964z"/>
</svg>
