<svg xmlns="http://www.w3.org/2000/svg" width="300" height="64" viewBox="0 0 300 64">
    <path fill="#FFF" fill-rule="evenodd" d="M222.155 11.254c-3.231 0-5.783 1.078-7.653 3.235-1.87 2.156-2.806 5.108-2.806 8.857 0 3.856.902 6.835 2.705 8.938 1.804 2.102 4.375 3.154 7.714 3.154 2.052 0 4.391-.37 7.02-1.109v3.003c-2.039.766-4.553 1.149-7.543 1.149-4.331 0-7.673-1.317-10.027-3.95-2.353-2.634-3.53-6.375-3.53-11.225 0-3.037.567-5.697 1.7-7.981s2.769-4.044 4.908-5.28c2.138-1.236 4.656-1.854 7.552-1.854 3.084 0 5.78.564 8.086 1.693l-1.448 2.942c-2.226-1.048-4.452-1.572-6.678-1.572zm31.9 26.804l-3.66-9.371h-11.787l-3.62 9.37h-3.46l11.625-29.584h2.877l11.565 29.585h-3.54zm-4.805-12.531l-3.42-9.13c-.442-1.155-.898-2.573-1.367-4.252-.295 1.29-.718 2.707-1.268 4.252l-3.46 9.13h9.515zm15.7 12.41h-3.42V8.473h16.393v3.043h-12.974v10.782h12.19v3.043h-12.19v12.596zm35.05 0h-16.393V8.473H300v3.043h-12.973v9.492h12.189v3.023h-12.19v10.843H300v3.063zm-1.505-31.415h.172l-2.472-3.677L294.39 0h-5.405l6.575 6.522h2.935zM0 7.908h12.782c3.962 0 6.933.534 8.914 1.6 1.98 1.067 2.97 2.865 2.97 5.397 0 3.896-2.35 6.228-7.053 6.996 5.7.796 8.55 3.27 8.55 7.508 0 3.1-1.168 5.268-3.506 6.505-2.337 1.238-5.7 1.856-10.089 1.856H0v-.81h2.779V8.719H0v-.81zm11.322 14.97v14.29h2.009c1.567 0 2.665-.54 3.292-1.62.627-1.081.94-2.674.94-4.778v-2.261c0-1.877-.385-3.285-1.154-4.223-.77-.939-2.138-1.408-4.104-1.408h-.983zm0-14.122v13.139h1.111c1.482 0 2.515-.448 3.1-1.344.584-.896.876-2.268.876-4.117V14.43c0-2.104-.257-3.576-.77-4.415s-1.496-1.258-2.95-1.258h-1.367zm37.507 15.97V21.57c0-5.205-.257-8.49-.77-9.855-.57-1.564-1.382-2.53-2.436-2.9-.599-.228-1.326-.342-2.18-.342-.856 0-1.59.114-2.202.342-.613.227-1.119.625-1.518 1.194a8.384 8.384 0 0 0-.962 1.792c-.242.625-.434 1.507-.577 2.645-.171 1.65-.256 4.08-.256 7.294v3.072c0 3.47.135 5.937.406 7.401.27 1.465.605 2.51 1.004 3.136.884 1.393 2.252 2.09 4.104 2.09 2.252 0 3.712-.945 4.382-2.837.67-1.891 1.005-5.183 1.005-9.875zm-5.483 13.658c-4.76 0-8.315-1.287-10.666-3.861-2.351-2.574-3.527-6.3-3.527-11.177s1.261-8.717 3.784-11.518c2.522-2.801 6.091-4.202 10.708-4.202 4.618 0 8.102 1.33 10.453 3.989 2.351 2.659 3.527 6.434 3.527 11.326 0 4.891-1.19 8.688-3.57 11.39s-5.95 4.053-10.709 4.053zM60.288 7.908h15.39v.939h-4.532v27.985h1.54c2.422 0 4.353-.74 5.792-2.219 1.44-1.479 2.9-3.754 4.382-6.825h.898l-.813 9.982H60.288v-.938h2.522V8.847h-2.522v-.939zm45.998 16.819V21.57c0-5.205-.256-8.49-.77-9.855-.57-1.564-1.382-2.53-2.436-2.9-.599-.228-1.325-.342-2.18-.342-.855 0-1.59.114-2.202.342-.613.227-1.119.625-1.518 1.194a8.384 8.384 0 0 0-.961 1.792c-.243.625-.435 1.507-.578 2.645-.17 1.65-.256 4.08-.256 7.294v3.072c0 3.47.135 5.937.406 7.401.27 1.465.606 2.51 1.005 3.136.883 1.393 2.251 2.09 4.104 2.09 2.251 0 3.712-.945 4.382-2.837.67-1.891 1.004-5.183 1.004-9.875zm-5.482 13.657c-4.76 0-8.315-1.287-10.667-3.861-2.35-2.574-3.526-6.3-3.526-11.177s1.26-8.717 3.783-11.518c2.522-2.801 6.092-4.202 10.709-4.202s8.101 1.33 10.452 3.989c2.351 2.659 3.527 6.434 3.527 11.326 0 4.891-1.19 8.688-3.57 11.39s-5.949 4.053-10.708 4.053zm32.71-.854c1.397 0 2.287-.256 2.672-.768.385-.511.577-1.379.577-2.602v-8.276h-2.736v-.938h12.312v.938h-1.667v12.03h-.641c-.513-.71-1.24-1.066-2.18-1.066-.4 0-1.59.256-3.57.768-1.981.512-3.67.768-5.066.768-4.646 0-8.244-1.252-10.795-3.755-2.55-2.502-3.826-6.263-3.826-11.283s1.333-8.895 3.997-11.625c2.665-2.73 6.249-4.095 10.752-4.095 1.739 0 3.484.22 5.237.661 1.753.441 2.772.661 3.057.661.285 0 .498-.064.64-.192.143-.128.3-.348.471-.66h.47l.342 9.256h-.77c-1.396-2.758-2.8-4.927-4.21-6.505-1.41-1.579-2.985-2.368-4.724-2.368-4.36 0-6.54 4.252-6.54 12.755v3.37c0 4.266.534 7.487 1.602 9.663 1.07 2.176 2.601 3.263 4.596 3.263zm39.52-28.811V37.77h-5.986l-14.663-27.6v26.79h2.351v.81h-5.856v-.81h2.35V8.719h-2.35v-.81h11.799l11.2 21.414V8.72h-2.351v-.81h5.857v.81h-2.352zm21.795 28.497L191.71 28h-8.465l-3.292 9.215h3.206v.81h-6.54v-.81h2.009l10.901-29.308h3.506l10.773 29.308h1.966v.81h-13.979v-.81h3.035zm-7.117-21.4l-4.018 11.178h7.737l-3.719-11.177zM51.015 56.513c.21-.288.859.03.978-.368-.043-.224-.143-.358-.308-.391 1.128-.267.883 1.408.067 1.747-.192-.399.255-.379.149-.722-.156-.308-.534-.265-.886-.266zm3.426.855c-.642.194-.935-.154-1.35-.318.268-.384.087-.813-.061-1.364.12-.111.322-.167.474-.256.092.223-.087.256.077.365.303-.044.726-.148.885.265-.17.36-.51.013-.936.206-.142.095-.217.235-.124.486.318.247.909.067 1.035.616zm-3.01-1.989c.655.592 1.572.804 2.575.047-.182.4-.767.524-1.207.747.12.556.747 1.11.149 1.465-.271-.235.033-.66-.144-1.071-.235-.544-1.046-.707-1.596-.427-.17.324.373.404.268.57-.274.008-.546.013-.88.12-.145.638.448.76.904.741-.136.262-.188.713.114.921.67-.024.722-.465.973-.772.213-.077.2.212.293.328.642-.214 1.712 1.172 2.183-.021-.054-.619-1.473-.793-.37-.704.878-.504-.353-1.094.037-1.665-.11-.19-.254-.323-.508-.28.115-.257.9-.3 1.055-.002.283.315-.141.44-.063.804.136.28.527.148.515.67-.11.295-.583.344-.702.633-.01.521.618.535.432 1.005-.904.789-1.93-.275-3.167.008-1.134.26-1.442 1.154-2.148 1.67-1.606 1.174-4.154 1.178-6.071 1.295-2.687.164-5.205.515-7.328-.164 2.229-.208 4.232.008 6.89-.13.864-.046 2.124-.01 2.73-.304.699-.34.836-1.309-.092-1.557-1.178-.313-2.988.156-4.48.226-1.652.079-3.238.082-4.581.092-.344.002-.61.095-.858-.244 2.663-.43 5.554-.08 8.25-.484.85-.128 1.621-.391 1.984-1.002-.59-.837-1.526-.531-2.434-.473-2.566.166-5.364.026-7.797-.254.515-.257.849-.155 1.675-.174 1.069-.025 2.37-.1 3.599-.105 1.804-.009 3.211.253 4.635-.577.401-.555.083-1.3-.467-1.55-2.42-.067-5.089-.022-7.564-.101-.781-.025-.843.106-1.48-.308 4.164-.053 8.418-1.06 12.155-.61 1.178.142 1.693.89 2.52 1.637zm29.257.868c-.104.157-.479-.088-.752.012.122-.34.49-.021.752-.012zM77.779 56c.11-.26.421-.019.648-.142-.1.24-.454.072-.648.142zm1.218-.534c-.052.356-.469.08-.778.247.059-.25.553-.284.778-.247zm-.4 1.964c-.107.007-.07-.213-.19-.188.091-.11.133-.25.315-.3-.08.138-.092.32-.125.488zm.761-1.002c-.188.226-.605-.02-.954.134.235-.3.671-.083.954-.134zm-3.037-1.234c-.016.565.6.692 1.065.783-.64.51-1.07-.36-1.483-.61-.113.161-.203.338-.18.592l-.432.097c.06-.446.506-.942 1.03-.862zm-1.873 1.383c.063.19-.05.263-.241.284l-.062-.293c.077.042.179.043.303.01zm-18.379.07c-.132.2-.666.208-.865.191.244-.333.494-.131.865-.191zm8.189.387c1.278.053 2.882-.036 4.063-.06 1.564-.03 3.16.006 4.55-.26.542-.102 1.245-.304 1.63-.551.382-.245.689-.865 1.09-1 .946-.32 1.667.831 2.494.805.76-.023 1.878-1.159 2.043.422.752.526 2.303.16 2.5 1.216.28 1.51-2.057.674-2.748 1.394-.21.22-.369 1.087-.596 1.212-.97.533-1.626-.785-2.29-.526-.606.545-.851 1.876-1.942.875-.094-.293-.078-.508.02-.665-.246-.347-.584-.544-.846-.868-2.802-.43-6.01-.718-9.245-.6-3.134.113-6.402.2-9.28.396.208-.713 1.281-.111 1.715-.49 1.713.307 4.016-.106 5.972.06 1.692-.1 3.506-.305 5.233-.255.763.021 1.51.386 2.272.036 1.582.291 3.238.456 4.594 1.129.315.102.04.83.414.972.707-.07.884-.683.713-.994.858-.64 1.4.118 2.043.42.393-.222.402-.714.54-1.116.731-.589 1.954.182 2.19-.768-.28-.952-1.307-.738-1.96-.768-.403-.082.13-.464-.122-.63-.7-.7-1.507.578-2.4.077-.09-.48-.335-.844-.76-.807-.54.046-.654.697-1.146 1.095-.737.595-1.552.556-2.396.488-.882.302-2.604.248-3.8.246-.362-.002-.74.02-1.056.003-3.821-.19-7.936-.097-11.83-.314.008-.502-.376-.342-.442-.718 1.9.512 4.186.176 6.395.29.777.04 1.547.221 2.388.254zm12.13-3.236c.618-.47.893.151.963.644-.336-.406-2.26-.647-2.873.33-.093-.965.693-1.038 1.195-1.517.382-.05.563.223.715.543zm3.175-.231c.148.095.243.277.266.575.306.076.797-.153.885.276-.286.023-.325.217-.633.225-.603-1.188-1.67.395-2.517-.14.49-.012.61-.507.975-.781.45.155.527.069 1.024-.155zm2.331 1.754c.234-.182.586-.369.865-.19.135.3-.12.533.068.676.17.12.468.044.694.077.174.214.333.452.402.833-.072.27-.57.258-.644.526-.158.276.301.175.268.554-.152.32-.734.282-.952.133-.277.155-.002.673-.454.712-.389-.269-1.114-1.117-1.58-.343.076.37.444.277.458.744-.17.347-.68.195-.953.133-.204.187.08.332-.02.618-.356.267-.87.201-.9-.34.768-.084.827-.636.88-1.191.893-.626 3.073.002 3-1.503-.066-1.355-1.747-1.095-2.61-1.654.458-.13.848-.497 1.297-.284.206.109-.046.376.181.499zm-3.883 3.748c.093-.107.483.148.71.151-.047.202.02.477-.354.462-.161-.138-.152-.542-.356-.613zm-1.834.777c.166 1.13-1.7.919-1.36-.008-.075-.145-.202-.208-.293-.325-.286-.019-.057.305-.316.304a5.892 5.892 0 0 0-.262-.175c-.013-.373.474-.41.613-.682.232.733 1.154 1.179 1.802.688.374-.283.248-.828.783-.953-.49.287.12.918-.01 1.405-.428.088-.589-.252-.957-.254zM43.369 56.65c.903.033 2.923-.348 2.426.927-1.587.852-3.458.418-5.318.459-1.63.037-3.263.09-4.718.526.228.8 1.22.807 1.928.82 1.124.023 2.228.146 3.624.184 1.486.04 3.425-.336 4.826-.016-2.787 1.533-6.06.51-8.93.952-.442.068-.946.144-1.351.506.351.83 1.513.76 2.464.775.585.01 1.497.018 2.146-.007 1.17-.045 2.562-.1 3.602-.376 1.04-.275 2.434-.285 2.567.336.037.17-.282.522-.413.593-.801.434-2.318-.033-3.205.02a74.54 74.54 0 0 1-5 .124c-.555-.008-1.354.063-1.925.536l.077.394c.756.23 2.255.42 3.33.44 1.778.036 4.442-.277 6.633-.424 2.058-.136 4.306-.778 5.18-2.466 1.358-1.347 2.708.133 3.76-.07.334-.065.544-.382.876-.539 1.058-.494 2.364-.416 3.38-.473 4.925-.281 10.501-.266 14.78.354.228.242.543.338.672.744-.381.344-1.168.685-.883 1.28.837.26 1.137 1.427 2.268 1.19.166-.2.474-.302.487-.61.295.153.858.008 1.08-.257.079-.461-.242-.807-.141-1.118.505-.053.496.766.806 1.042.583-.408 1.08.215 1.591.033.303-.108.27-.499.542-.704.31-.233.681.062.835-.364.114-.358-.097-.829-.11-.96.358.459 1.475 1.135 1.575-.046.35.117.792-.066 1.066-.337.126-.138.116-.577-.065-.724.686-.36.57-1.176.113-1.755-.177-.191-.471-.182-.726-.24.1-.368-.054-.7-.312-.83-.653-.327-.958-.404-1.637-.27-.09-.576-.488-.64-.946-.596-.04-.455-.276-.579-.57-.608-.467.027-.666.28-1.185.118-.388.135-.279.823-.773.68a1.144 1.144 0 0 0-.152-.788c-.675.098-1.22-.584-1.826-.472-.424.08-.845.267-1.223.703-.367.422-.359 1.631-.632 1.796-.335.199-1.067.23-1.603.299-1.825.234-3.962.016-5.87.079-3.627.12-7.44.035-10.631-.353-.718-2.17-2.82.704-3.979-.288-.62-.789-1.452-1.702-2.406-1.898-2.116-.431-5.35-.097-8.053.105-2.092.156-4.093.167-5.747.708.346.765 1.212.847 2.022.885 1.799.084 3.685-.088 5.674-.019zm204.65.9c-.21.288-.859-.03-.978.368.043.224.143.358.308.391-1.128.267-.883-1.408-.067-1.746.192.398-.255.378-.149.721.156.308.534.265.885.267zm-3.646-.938c.642-.195.935.154 1.35.317-.268.385-.087.814.061 1.364-.12.111-.322.168-.474.257-.092-.224.087-.256-.077-.366-.303.044-.726.148-.885-.265.17-.359.51-.012.936-.205.142-.096.217-.236.124-.487-.318-.247-.909-.067-1.035-.615zm3.416 3.518c-.655-.592-1.572-.805-2.575-.048.182-.398.767-.523 1.207-.747-.119-.555-.747-1.11-.149-1.464.271.234-.033.66.144 1.07.235.545 1.046.708 1.596.428.17-.325-.373-.404-.267-.57.273-.008.545-.013.879-.12.145-.638-.448-.76-.904-.741.136-.263.188-.713-.114-.922-.67.024-.722.466-.973.773-.213.077-.2-.212-.293-.328-.642.214-1.712-1.172-2.183.02.054.62 1.474.794.37.705-.878.504.353 1.094-.037 1.665.11.189.254.323.508.28-.115.257-.9.3-1.055.001-.282-.315.141-.44.063-.803-.135-.28-.527-.148-.515-.67.111-.295.583-.345.702-.633.01-.522-.618-.535-.432-1.006.904-.788 1.93.276 3.167-.007 1.135-.26 1.442-1.154 2.148-1.67 1.606-1.174 4.155-1.179 6.071-1.295 2.687-.164 5.206-.515 7.328.164-2.229.207-4.231-.009-6.89.13-.864.046-2.124.01-2.73.303-.699.34-.836 1.31.092 1.557 1.178.314 2.988-.155 4.48-.226 1.652-.078 3.238-.08 4.581-.091.344-.003.61-.095.859.244-2.664.43-5.555.08-8.252.484-.85.127-1.62.391-1.983 1.001.59.838 1.526.532 2.434.474 2.566-.167 5.364-.027 7.797.254-.515.257-.849.155-1.675.174-1.069.024-2.37.099-3.599.105-1.804.009-3.211-.254-4.635.576-.401.556-.083 1.3.468 1.55 2.42.068 5.088.023 7.563.102.782.025.843-.107 1.48.308-4.164.053-8.418 1.06-12.155.61-1.177-.142-1.693-.89-2.52-1.637zm-29.817-2.422c.105-.157.479.088.752-.012-.122.34-.49.021-.752.012zm2.909.246c-.11.26-.42.019-.648.142.1-.24.454-.072.648-.142zm-.935.534c.052-.357.469-.081.778-.247-.059.25-.553.284-.778.247zm.117-1.965c.107-.006.07.214.19.189-.091.11-.132.25-.315.3.08-.138.092-.32.125-.489zm-.68 1.013c.189-.226.606.021.955-.133-.236.3-.671.083-.954.133zm3.048 1.396c.016-.566-.6-.692-1.065-.783.64-.511 1.07.36 1.482.61.114-.161.204-.339.18-.592l.433-.097c-.06.446-.506.942-1.03.862zm1.78-1.555c-.062-.19.05-.263.242-.284l.062.292c-.076-.041-.179-.042-.303-.008zm18.38-.07c.132-.2.666-.208.865-.191-.243.333-.494.131-.865.19zm-7.998 2.06c-1.278-.052-2.882.037-4.063.06-1.564.03-3.16-.006-4.55.26-.542.102-1.245.304-1.63.552-.382.244-.689.864-1.09 1-.946.32-1.667-.832-2.494-.806-.76.023-1.878 1.16-2.043-.421-.752-.526-2.303-.161-2.5-1.216-.28-1.51 2.057-.675 2.748-1.394.21-.22.369-1.088.596-1.213.97-.532 1.626.785 2.29.527.606-.545.851-1.877 1.942-.875.094.292.078.507-.02.664.246.347.583.544.846.868 2.802.43 6.01.718 9.245.6 3.134-.113 6.402-.2 9.28-.396-.208.714-1.281.112-1.716.491-1.712-.308-4.015.106-5.972-.061-1.691.1-3.505.305-5.232.255-.763-.02-1.51-.385-2.272-.035-1.582-.292-3.238-.457-4.594-1.13-.315-.101-.04-.829-.414-.972-.707.07-.884.684-.714.994-.857.64-1.399-.117-2.042-.42-.393.222-.402.714-.54 1.116-.732.59-1.954-.182-2.19.769.28.952 1.307.737 1.96.767.403.083-.13.464.122.63.7.7 1.507-.577 2.4-.077.09.48.335.845.76.808.54-.046.654-.698 1.146-1.096.737-.595 1.552-.556 2.396-.487.882-.302 2.604-.249 3.8-.246.362.001.739-.02 1.056-.004 3.821.191 7.936.098 11.83.315-.008.501.376.342.442.718-1.9-.512-4.186-.177-6.395-.29-.777-.04-1.547-.222-2.388-.255zm-12.228 1.125c-.618.47-.893-.15-.963-.643.336.405 2.26.646 2.873-.331.093.966-.693 1.038-1.195 1.517-.382.05-.563-.223-.715-.543zm-3.237.083c-.148-.095-.243-.277-.266-.575-.305-.076-.797.153-.885-.276.286-.023.325-.217.633-.225.603 1.188 1.67-.395 2.517.14-.49.012-.61.507-.975.78-.45-.154-.527-.068-1.024.156zm-2.045-1.403c-.234.182-.586.368-.865.19-.135-.3.121-.533-.068-.677-.17-.12-.468-.043-.694-.076a1.732 1.732 0 0 1-.402-.834c.072-.27.57-.258.644-.525.158-.277-.301-.175-.268-.555.152-.32.734-.282.953-.133.276-.154.001-.673.453-.712.389.27 1.114 1.117 1.58.343-.076-.369-.444-.277-.458-.743.17-.348.68-.196.953-.133.204-.188-.079-.333.02-.618.356-.268.87-.202.9.34-.768.083-.827.635-.88 1.19-.893.626-3.073-.001-3 1.503.066 1.355 1.747 1.096 2.61 1.654-.458.13-.848.497-1.297.284-.206-.108.046-.375-.181-.498zm3.566-4.287c-.093.106-.483-.148-.71-.151.047-.202-.02-.477.355-.462.16.138.152.542.355.613zm2.032-.558c-.166-1.13 1.7-.92 1.36.008.074.145.201.208.293.325.285.019.056-.306.315-.305.085.062.173.12.262.176.014.372-.474.41-.613.681-.231-.732-1.154-1.178-1.802-.687-.374.282-.248.828-.783.953.49-.287-.12-.918.01-1.405.428-.088.589.252.958.254zm33.24 7.641c-.903-.032-2.924.349-2.426-.926 1.587-.853 3.458-.418 5.318-.46 1.63-.036 3.263-.09 4.718-.526-.228-.8-1.22-.807-1.928-.82-1.124-.022-2.229-.145-3.624-.184-1.486-.04-3.425.336-4.826.016 2.787-1.533 6.06-.51 8.93-.952.442-.067.946-.143 1.35-.505-.35-.83-1.512-.76-2.463-.775a44.405 44.405 0 0 0-2.146.007c-1.171.044-2.562.1-3.602.375-1.04.276-2.434.286-2.567-.336-.037-.17.282-.522.413-.593.801-.434 2.318.033 3.205-.02a74.54 74.54 0 0 1 5-.123c.555.007 1.353-.063 1.924-.536l-.076-.395c-.756-.23-2.255-.42-3.331-.44-1.777-.036-4.44.277-6.632.424-2.058.137-4.306.779-5.18 2.466-1.358 1.347-2.709-.132-3.76.07-.334.065-.544.383-.876.54-1.058.493-2.364.415-3.38.473-4.925.28-10.501.265-14.78-.354-.228-.242-.543-.339-.673-.744.382-.344 1.17-.686.884-1.28-.838-.261-1.137-1.427-2.268-1.19-.166.2-.474.301-.487.61-.295-.154-.858-.008-1.08.257-.079.46.242.807.141 1.118-.505.052-.496-.767-.806-1.043-.583.408-1.08-.215-1.592-.033-.302.108-.269.5-.541.705-.31.233-.681-.063-.835.363-.114.358.097.83.11.96-.358-.458-1.475-1.135-1.575.047-.35-.117-.792.065-1.066.336-.126.138-.116.577.065.725-.686.359-.57 1.176-.113 1.755.176.19.471.182.726.24-.1.367.054.7.312.83.653.326.958.403 1.637.27.09.576.488.639.946.596.04.454.276.578.57.608.466-.028.666-.28 1.185-.118.388-.136.278-.824.773-.68-.05.252.015.583.152.788.675-.099 1.22.584 1.826.471.424-.079.845-.267 1.223-.702.367-.423.358-1.632.632-1.796.334-.2 1.067-.23 1.602-.3 1.826-.233 3.963-.015 5.871-.078 3.627-.12 7.44-.035 10.631.353.718 2.17 2.82-.705 3.979.288.62.788 1.452 1.702 2.406 1.897 2.116.431 5.35.098 8.053-.104 2.092-.157 4.093-.168 5.747-.708-.346-.766-1.212-.847-2.022-.885-1.799-.085-3.685.088-5.674.018zm-155.655-5.13v5.287h-.848V49.992h2.894c1.508 0 2.622.278 3.343.834.72.556 1.081 1.393 1.081 2.51 0 .814-.215 1.5-.644 2.059-.43.559-1.083.96-1.959 1.203l3.302 5.528h-1.015l-3.135-5.287h-3.019zm0-.646h2.321c1.026 0 1.821-.229 2.387-.685.566-.457.848-1.13.848-2.021 0-.924-.277-1.596-.831-2.017-.555-.42-1.459-.63-2.712-.63h-2.012v5.353zm15.986 5.933h-6.645V49.992h6.645v.78h-5.797v4.59h5.473v.78h-5.473v5.203h5.797v.78zm9.356-2.955c0 1.013-.373 1.815-1.118 2.407-.746.592-1.737.888-2.973.888-1.486 0-2.626-.163-3.419-.49v-.846c.876.37 1.994.556 3.352.556.998 0 1.79-.229 2.374-.685.585-.456.878-1.055.878-1.797 0-.459-.097-.84-.291-1.14-.194-.302-.51-.578-.948-.827-.438-.249-1.082-.517-1.93-.805-1.242-.426-2.1-.886-2.574-1.381-.474-.496-.71-1.155-.71-1.98 0-.907.355-1.647 1.068-2.22.712-.572 1.628-.859 2.748-.859a8.06 8.06 0 0 1 3.219.648l-.308.73c-1.009-.42-1.974-.63-2.894-.63-.898 0-1.613.207-2.146.622-.532.415-.798.979-.798 1.693 0 .448.082.816.245 1.103.164.288.431.547.803.776.371.23 1.009.505 1.913.826.948.327 1.66.643 2.137.95.477.307.825.656 1.044 1.046.219.39.328.862.328 1.415zm5.789 2.955h-.857V50.789h-3.95v-.797h8.757v.797h-3.95v11.337zm11.543-4.233H138l-1.696 4.282h-.94l4.89-12.183h.54l4.791 12.183h-.956l-1.689-4.282zm-4.463-.687h4.35l-1.655-4.374a21.216 21.216 0 0 1-.499-1.427c-.15.53-.313 1.012-.49 1.444l-1.706 4.357zm17.856-7.214v7.851c0 1.394-.404 2.484-1.214 3.27-.81.786-1.938 1.178-3.385 1.178-1.408 0-2.507-.394-3.297-1.182-.79-.789-1.185-1.888-1.185-3.299v-7.818h.856v7.851c0 1.168.325 2.076.973 2.726.649.65 1.567.976 2.753.976 1.159 0 2.057-.32 2.695-.959.637-.639.956-1.526.956-2.66v-7.934h.848zm4.22 6.847v5.287h-.848V49.992h2.895c1.508 0 2.622.278 3.343.834.72.556 1.081 1.393 1.081 2.51 0 .814-.215 1.5-.644 2.059-.43.559-1.083.96-1.959 1.203l3.302 5.528h-1.015l-3.135-5.287h-3.02zm.002-.646h2.32c1.026 0 1.821-.229 2.387-.685.565-.457.848-1.13.848-2.021 0-.924-.277-1.596-.832-2.017-.554-.42-1.458-.63-2.71-.63h-2.013v5.353zm14.935 1.7h-4.94l-1.697 4.282h-.94l4.89-12.183h.541l4.79 12.183h-.956l-1.688-4.282zm-4.463-.687h4.35l-1.655-4.374a21.216 21.216 0 0 1-.5-1.427c-.149.53-.313 1.012-.49 1.444l-1.705 4.357zm17.898 4.92h-.857l-7.202-10.773h-.066c.066 1.284.1 2.252.1 2.905v7.868h-.816V49.992h.849l7.194 10.756h.05a56.83 56.83 0 0 1-.075-2.838v-7.918h.823v12.134zm6.439 0h-.857V50.789h-3.95v-.797h8.757v.797h-3.95v11.337z"/>
</svg>
