<svg xmlns="http://www.w3.org/2000/svg">

    <symbol viewBox="0 0 27 20" id="ico-1">
        <path d="M17.145 20C22.588 20 27 15.523 27 10S22.588 0 17.145 0C11.702 0 7.29 4.477 7.29 10s4.412 10 9.855 10zm0-7.397c-1.267 0-2.295-1.043-2.295-2.329 0-1.286 1.028-2.329 2.295-2.329s2.295 1.043 2.295 2.329c0 1.286-1.028 2.329-2.295 2.329zm-14.715 0c-1.342 0-2.43-1.104-2.43-2.466s1.088-2.466 2.43-2.466 2.43 1.104 2.43 2.466-1.088 2.466-2.43 2.466z"/>
    </symbol>
    <symbol viewBox="0 0 20 27" id="ico-2">
        <path d="M6.964 16.674l-.157.011c-3.72.25-5.675.348-5.866.297-.31-.118-.5-.365-.57-.74-.065-.266-.051-.636.042-1.11.123-.714.328-1.478.614-2.291.273-.639.502-1.111.687-1.418.324-.446.69-.598 1.094-.454.128.035 1.335.945 3.621 2.732l1.143.894c.26.176.396.435.407.776.01.341-.077.638-.264.89a.983.983 0 0 1-.751.413zm4.292-4.936c-.137.64-.367 1.085-.69 1.337-.324.251-.653.27-.988.055-.335-.214-.587-.646-.754-1.296l-2.87-9.738c.016-.316.188-.572.514-.77.457-.304 1.484-.474 3.08-.509 1.597-.035 2.649.087 3.154.365.324.193.494.452.51.777-.022.208-.327 1.727-.915 4.56l-1.04 5.22zM8.96 19.931l-.014.05c-1 3.86-1.55 5.848-1.649 5.964-.207.265-.5.4-.877.406-.495-.062-1.259-.462-2.29-1.2-.684-.505-1.166-.936-1.445-1.296-.498-.56-.606-1.052-.322-1.474.108-.149 1.282-1.027 3.522-2.633l1.398-1.013c.263-.215.545-.282.848-.2.302.08.544.261.725.54.181.28.216.566.104.856zm10.222-3.56c-.154.065-1.605.068-4.354.007l-1.745.014.061-.037a1 1 0 0 1-.765-.392c-.206-.251-.3-.535-.285-.85.017-.317.156-.582.418-.796l1.316-1.09c2.125-1.814 3.26-2.738 3.406-2.77.308-.131.615-.067.92.193.361.31.738 1.07 1.131 2.278.394 1.21.55 2.088.472 2.636l-.027.1c-.098.365-.28.6-.548.707zm-1.27 6.653c-.197.48-.812 1.117-1.843 1.908-1.031.792-1.797 1.227-2.296 1.307-.386.039-.664-.071-.833-.33-.078-.092-.377-1.08-.896-2.963l-.835-3c-.097-.275-.056-.557.124-.847.18-.29.42-.484.72-.581a.916.916 0 0 1 .838.118l2.422 1.663c1.624 1.076 2.47 1.676 2.539 1.801.17.26.19.567.06.924z"/>
    </symbol>
    <symbol viewBox="0 0 26 15" id="ico-3">
        <path d="M7.493 8.597c0 .264-.105.497-.316.702-.21.205-.459.307-.745.307s-.541-.102-.767-.307c-.226-.205-.339-.446-.339-.724 0-.277.113-.518.339-.723.226-.205.481-.307.767-.307.286 0 .534.102.745.307a1 1 0 0 1 .316.745zm11.962-1.052c.3 0 .557.102.767.307.21.205.316.446.316.723a.976.976 0 0 1-.316.724 1.06 1.06 0 0 1-.767.307c-.301 0-.557-.102-.767-.307a.976.976 0 0 1-.316-.724c0-.277.105-.518.316-.723a1.06 1.06 0 0 1 .767-.307zm4.062 6.095a6.643 6.643 0 0 1-3.114 1.294c-1.144.16-2.25.029-3.318-.395a6.729 6.729 0 0 1-2.73-1.995l-1.4 2.06-1.354-2.016a6.248 6.248 0 0 1-2.64 1.907c-1.04.395-2.122.526-3.25.395a6.615 6.615 0 0 1-3.093-1.184 5.974 5.974 0 0 1-2.076-2.543A6.26 6.26 0 0 1 .045 7.94c.12-1.111.527-2.12 1.219-3.026A8.422 8.422 0 0 0 0 2.371h4.063A17.713 17.713 0 0 1 8.35.573c1.504-.41 3.039-.6 4.604-.57 1.535-.03 3.04.16 4.514.57a17.09 17.09 0 0 1 4.198 1.798H26a8.68 8.68 0 0 0-1.309 2.5 6.107 6.107 0 0 1 1.241 3.003 6.214 6.214 0 0 1-.429 3.179 6.246 6.246 0 0 1-1.986 2.587zM11.691 8.641c0-.935-.233-1.783-.7-2.543a5.246 5.246 0 0 0-1.873-1.82 5.086 5.086 0 0 0-2.595-.68c-.948 0-1.821.227-2.618.68A5.134 5.134 0 0 0 2.009 6.12a4.8 4.8 0 0 0-.7 2.521 4.8 4.8 0 0 0 .7 2.522 5.134 5.134 0 0 0 1.896 1.841c.797.453 1.67.68 2.618.68.947 0 1.813-.227 2.595-.68a5.187 5.187 0 0 0 1.873-1.841 4.8 4.8 0 0 0 .7-2.522zM13 8.16a6.187 6.187 0 0 1 .993-2.894A6.407 6.407 0 0 1 16.25 3.16a6.416 6.416 0 0 1 3.024-.833 15.866 15.866 0 0 0-6.32-1.25 16.948 16.948 0 0 0-6.319 1.25c1.114.03 2.137.3 3.07.811a6.34 6.34 0 0 1 2.28 2.105A6.189 6.189 0 0 1 13 8.159zM24.375 6.93a5 5 0 0 0-1.557-2.17 5.09 5.09 0 0 0-2.438-1.075 5.409 5.409 0 0 0-2.686.241 4.936 4.936 0 0 0-2.189 1.513 5.117 5.117 0 0 0-1.128 2.368 4.623 4.623 0 0 0 .248 2.587 4.85 4.85 0 0 0 1.557 2.149 5.374 5.374 0 0 0 2.415 1.074c.903.161 1.798.08 2.686-.241a5.164 5.164 0 0 0 2.212-1.513A4.802 4.802 0 0 0 24.6 9.518c.15-.877.075-1.74-.226-2.587zM9.66 8.597c0 .848-.316 1.579-.948 2.193a3.154 3.154 0 0 1-2.28.92 3.154 3.154 0 0 1-2.28-.92c-.631-.614-.947-1.352-.947-2.215 0-.862.316-1.6.948-2.214a3.154 3.154 0 0 1 2.28-.92c.887 0 1.647.306 2.279.92.632.614.948 1.36.948 2.236zm-1.129 0v-.043c0-.556-.203-1.03-.61-1.426a2.057 2.057 0 0 0-1.489-.591c-.587 0-1.083.197-1.49.591a1.94 1.94 0 0 0-.609 1.447c0 .57.203 1.053.61 1.448.406.394.902.591 1.49.591.586 0 1.083-.197 1.489-.591.406-.395.61-.87.61-1.426zm14.174 0c0 .848-.316 1.579-.948 2.193a3.154 3.154 0 0 1-2.28.92 3.154 3.154 0 0 1-2.28-.92c-.631-.614-.947-1.352-.947-2.215 0-.862.316-1.6.948-2.214a3.154 3.154 0 0 1 2.28-.92c.887 0 1.64.306 2.256.92.617.614.94 1.36.97 2.236zm-1.129 0c0-.584-.203-1.074-.609-1.469a2.057 2.057 0 0 0-1.49-.591c-.586 0-1.083.197-1.49.591a1.94 1.94 0 0 0-.609 1.447c0 .57.204 1.053.61 1.448.406.394.903.591 1.49.591.586 0 1.083-.197 1.489-.591.406-.395.61-.87.61-1.426z"/>
    </symbol>
    <symbol viewBox="0 0 13 24" id="ico-4">
        <path d="M3.792 24V13.266H0V9h3.792V5.625c0-1.781.525-3.164 1.575-4.148C6.417.492 7.813 0 9.553 0c1.412 0 2.56.063 3.447.188v3.796h-2.364c-.886 0-1.493.188-1.822.563-.262.312-.394.812-.394 1.5V9h4.186l-.59 4.266H8.42V24H3.792z"/>
    </symbol>
    <symbol viewBox="0 0 20 20" id="ico-5">
        <path d="M10 4.866c.923 0 1.778.23 2.567.692a5.149 5.149 0 0 1 1.875 1.875c.461.789.692 1.644.692 2.567 0 .923-.23 1.778-.692 2.567a5.149 5.149 0 0 1-1.875 1.875 4.996 4.996 0 0 1-2.567.692c-.923 0-1.778-.23-2.567-.692a5.15 5.15 0 0 1-1.875-1.875A4.996 4.996 0 0 1 4.866 10c0-.923.23-1.778.692-2.567a5.15 5.15 0 0 1 1.875-1.875A4.996 4.996 0 0 1 10 4.866zm0 8.482c.923 0 1.711-.327 2.366-.982A3.225 3.225 0 0 0 13.348 10c0-.923-.327-1.711-.982-2.366A3.225 3.225 0 0 0 10 6.652c-.923 0-1.711.327-2.366.982A3.225 3.225 0 0 0 6.652 10c0 .923.327 1.711.982 2.366a3.225 3.225 0 0 0 2.366.982zm6.562-8.705a1.39 1.39 0 0 1-.379.848 1.087 1.087 0 0 1-.826.357c-.327 0-.61-.119-.848-.357a1.159 1.159 0 0 1-.357-.848c0-.328.119-.61.357-.848s.52-.357.848-.357c.327 0 .61.119.848.357s.357.52.357.848zm3.393 1.205c.03.834.045 2.217.045 4.152s-.022 3.326-.067 4.174c-.045.848-.171 1.585-.38 2.21a5.203 5.203 0 0 1-1.227 1.942c-.55.55-1.198.96-1.942 1.228-.625.208-1.362.334-2.21.379-.848.045-2.24.067-4.174.067-1.935 0-3.326-.022-4.174-.067-.848-.045-1.585-.186-2.21-.424a4.759 4.759 0 0 1-1.942-1.183 5.203 5.203 0 0 1-1.228-1.942c-.208-.625-.334-1.362-.379-2.21C.022 13.326 0 11.934 0 10c0-1.935.022-3.326.067-4.174.045-.848.171-1.585.38-2.21a5.203 5.203 0 0 1 1.227-1.942c.55-.55 1.198-.96 1.942-1.228.625-.208 1.362-.334 2.21-.379C6.674.022 8.066 0 10 0c1.935 0 3.326.022 4.174.067.848.045 1.585.171 2.21.38a5.203 5.203 0 0 1 1.942 1.227c.55.55.96 1.198 1.228 1.942.208.625.342 1.37.401 2.232zm-2.143 10.045c.179-.506.298-1.31.358-2.41.03-.656.044-1.578.044-2.769V9.286c0-1.22-.015-2.143-.044-2.768-.06-1.131-.179-1.935-.358-2.41-.357-.923-.997-1.563-1.92-1.92-.475-.18-1.279-.298-2.41-.358a65.133 65.133 0 0 0-2.768-.044H9.286c-1.19 0-2.113.015-2.768.044-1.101.06-1.905.179-2.41.357-.923.358-1.563.998-1.92 1.92-.18.476-.298 1.28-.358 2.41-.03.656-.044 1.578-.044 2.769v1.428c0 1.19.015 2.113.044 2.768.06 1.101.179 1.905.357 2.41.387.923 1.027 1.563 1.92 1.92.506.18 1.31.298 2.41.358.656.03 1.578.044 2.769.044h1.428c1.22 0 2.143-.015 2.768-.044 1.131-.06 1.935-.179 2.41-.358.923-.386 1.563-1.026 1.92-1.92z"/>
    </symbol>
    <symbol viewBox="0 0 30 43" id="icon-mouse">
        <path d="M27.179 27.67c0 6.883-5.463 12.482-12.179 12.482-6.715 0-12.179-5.62-12.179-12.53V15.378c0-6.909 5.464-12.53 12.179-12.53 6.716 0 12.179 5.621 12.179 12.53V27.67zM15 0C6.729 0 0 6.898 0 15.377v12.246C0 36.102 6.729 43 15 43c8.27 0 15-6.877 15-15.33V15.377C30 6.898 23.27 0 15 0zm0 11.77c-.78 0-1.41.638-1.41 1.424v4.984c0 .786.63 1.424 1.41 1.424.78 0 1.41-.638 1.41-1.424v-4.984c0-.786-.63-1.424-1.41-1.424"/>
    </symbol>

</svg>